:SAMPLES-PER-SECOND 30
:FULLY-SPECIFIED
:DEGREES
379
root  2.16258 18.4364 -36.94 -120.044 -2.61388 -171.159
RightUpLeg  -68.3408 1.90394 16.7167
RightLeg  115.637 19.7263 -7.85278
RightFoot  -0.0521527 0.275096 -2.45393
RightToes  -5.82073e-011 -3.18055e-015 -2.98177e-016
Spine  31.2624 0.813019 13.5872
Spine1  -3.97591 5.14454 -5.33338
HEad  -26.9154 -2.66112 -1.73395
LeftShoulder1  -3.88251e-019 9.70628e-020 -3.87848e-018
LeftArm  1.97845 -28.9764 -69.201
LeftForeArm  15.7569 -10.5871 -7.14114
LeftHand  -11.1941 -11.1626 70.4913
RightShoulder  5.90166 10.8027 26.557
RightArm  19.0442 -2.43948 46.3181
RightForeArm  35.8499 17.7984 -5.638
RightHand  -13.1891 12.2757 -74.1423
LeftUpLeg  -33.2241 7.32483 -0.345167
LeftLeg  77.7289 -10.5268 22.008
LeftFoot  -7.55725 0.638621 -13.719
LeftToes  -2.27483e-011 -5.53417e-011 9.36564e-012
380
root  2.53338 18.4523 -37.4478 -119.766 -3.01031 -172.256
RightUpLeg  -67.3577 1.69828 16.2308
RightLeg  115.235 18.6258 -5.89544
RightFoot  0.513915 0.266362 -2.29559
RightToes  -5.82073e-011 -3.18055e-015 -2.98177e-016
Spine  30.8645 0.587243 11.4141
Spine1  -4.59114 4.18729 -5.08908
HEad  -27.4354 -2.80544 -1.81612
LeftShoulder1  -3.88251e-019 9.70628e-020 -3.87848e-018
LeftArm  1.73588 -27.8937 -69.0856
LeftForeArm  18.2731 -10.0227 -7.07345
LeftHand  -11.5385 -11.4543 71.1677
RightShoulder  5.66216 10.7382 25.4019
RightArm  28.4211 -6.23507 46.437
RightForeArm  26.5273 20.9585 -10.3505
RightHand  -12.428 12.3828 -70.5587
LeftUpLeg  -34.8428 5.80159 0.962204
LeftLeg  79.9477 -11.632 18.5992
LeftFoot  -3.82219 0.848962 -10.5564
LeftToes  -2.27483e-011 -5.53417e-011 9.36564e-012
381
root  2.86044 18.5096 -37.7826 -118.42 -5.09656 -173.903
RightUpLeg  -67.8207 0.893067 17.2812
RightLeg  114.358 18.067 -4.98115
RightFoot  1.26652 0.301807 -2.47427
RightToes  -5.82073e-011 -3.18055e-015 -2.98177e-016
Spine  29.4667 -0.317111 11.2618
Spine1  -5.40764 2.82708 -5.01887
HEad  -27.8146 -3.36208 -1.04721
LeftShoulder1  -3.88251e-019 9.70628e-020 -3.87848e-018
LeftArm  1.36019 -27.2156 -69.6994
LeftForeArm  20.8305 -8.81999 -6.84245
LeftHand  -11.8099 -11.7185 71.5665
RightShoulder  5.46068 10.6206 24.5321
RightArm  31.1608 -8.70486 45.5024
RightForeArm  24.4295 25.598 -14.8961
RightHand  -12.5352 12.7007 -70.0481
LeftUpLeg  -39.3914 3.52572 3.04711
LeftLeg  83.7287 -12.8581 17.2881
LeftFoot  -1.96658 0.733196 -7.5302
LeftToes  -2.27483e-011 -5.53417e-011 9.36564e-012
382
root  3.14926 18.6225 -38.1436 -118.057 -6.53857 -175.397
RightUpLeg  -66.8234 0.110666 18.1201
RightLeg  112.841 17.9983 -5.13597
RightFoot  1.40544 0.379575 -3.06421
RightToes  -5.82073e-011 -3.18055e-015 -2.98177e-016
Spine  29.5265 -1.07837 10.6779
Spine1  -6.43211 1.71827 -4.92066
HEad  -28.2484 -4.05069 -0.398749
LeftShoulder1  -3.88251e-019 9.70628e-020 -3.87848e-018
LeftArm  1.14448 -26.8788 -70.1574
LeftForeArm  22.6476 -7.66722 -6.80417
LeftHand  -11.9562 -11.7962 71.986
RightShoulder  5.25722 10.4512 23.7261
RightArm  28.0405 -8.99581 43.9577
RightForeArm  24.9269 32.1926 -18.4867
RightHand  -12.8516 13.0361 -70.4208
LeftUpLeg  -43.0991 2.62868 4.39666
LeftLeg  87.7549 -14.0604 17.8838
LeftFoot  -2.19269 0.503809 -5.32418
LeftToes  -2.27483e-011 -5.53417e-011 9.36564e-012
383
root  3.41551 18.7651 -38.5282 -118.53 -6.79611 -177.116
RightUpLeg  -64.9031 -1.10136 18.0347
RightLeg  111.167 18.2277 -6.01824
RightFoot  0.981799 0.403898 -3.33417
RightToes  -5.82073e-011 -3.18055e-015 -2.98177e-016
Spine  30.9024 -1.5441 8.61938
Spine1  -7.74834 0.678933 -4.32759
HEad  -28.4797 -4.69655 -0.0392316
LeftShoulder1  -3.88251e-019 9.70628e-020 -3.87848e-018
LeftArm  1.08286 -26.3646 -69.9895
LeftForeArm  23.8715 -7.04299 -7.01368
LeftHand  -12.1239 -11.8376 72.6156
RightShoulder  4.85958 10.1704 22.0102
RightArm  23.671 -7.67409 43.7461
RightForeArm  20.2288 37.7398 -22.0778
RightHand  -12.3457 12.8087 -68.885
LeftUpLeg  -46.023 2.30702 4.2467
LeftLeg  92.526 -15.5777 18.4729
LeftFoot  -4.1717 0.282082 -3.74085
LeftToes  -2.27483e-011 -5.53417e-011 9.36564e-012
384
root  3.6364 18.8485 -38.8469 -118.662 -6.72853 -178.919
RightUpLeg  -63.6684 -2.66743 17.8772
RightLeg  109.697 18.7116 -7.56775
RightFoot  0.409894 0.313595 -2.7027
RightToes  -5.82073e-011 -3.18055e-015 -2.98177e-016
Spine  31.9944 -1.88958 6.87359
Spine1  -9.13872 -0.202533 -4.25864
HEad  -28.2674 -5.74787 0.642235
LeftShoulder1  -3.88251e-019 9.70628e-020 -3.87848e-018
LeftArm  1.2712 -25.6647 -70.0551
LeftForeArm  25.0451 -6.69599 -7.28908
LeftHand  -12.3484 -11.9763 73.1753
RightShoulder  4.33464 9.7329 19.7588
RightArm  17.2613 -4.89358 45.0331
RightForeArm  14.1387 40.2025 -23.7122
RightHand  -11.1141 11.9366 -65.911
LeftUpLeg  -49.8292 1.60266 3.4752
LeftLeg  98.7134 -17.3636 17.8119
LeftFoot  -8.08112 0.0807401 -2.29112
LeftToes  -2.27483e-011 -5.53417e-011 9.36564e-012
385
root  3.80133 18.8268 -39.1366 -118.392 -6.55891 -179.899
RightUpLeg  -62.8716 -3.58716 18.2303
RightLeg  108.221 19.3622 -9.71333
RightFoot  -0.185261 0.198501 -1.80442
RightToes  -5.82073e-011 -3.18055e-015 -2.98177e-016
Spine  32.4386 -2.1298 6.5673
Spine1  -10.4005 -0.546731 -5.71899
HEad  -27.9002 -7.14464 1.76378
LeftShoulder1  -3.88251e-019 9.70628e-020 -3.87848e-018
LeftArm  1.73768 -25.2084 -70.65
LeftForeArm  26.2515 -6.11379 -7.64769
LeftHand  -12.5386 -12.1108 73.5842
RightShoulder  3.91197 9.28885 17.996
RightArm  8.96355 -0.214043 46.9818
RightForeArm  10.383 38.8873 -22.4897
RightHand  -10.1414 10.9556 -64.1694
LeftUpLeg  -54.3156 1.15169 2.8163
LeftLeg  105.461 -19.0283 16.5323
LeftFoot  -13.5774 -0.0434041 -1.18515
LeftToes  -2.27483e-011 -5.53417e-011 9.36564e-012
